<?xml version="1.0" encoding="utf-8"?>
<!-- Generator: Adobe Illustrator 23.0.3, SVG Export Plug-In . SVG Version: 6.00 Build 0)  -->
<svg version="1.1" id="Calque_1" xmlns="http://www.w3.org/2000/svg" xmlns:xlink="http://www.w3.org/1999/xlink" x="0px" y="0px"
	 viewBox="0 0 461.7 324.1" style="enable-background:new 0 0 461.7 324.1;" xml:space="preserve">
<style type="text/css">
	.st0{opacity:0.4;fill:#5547A4;}
</style>
<title>ic_quote</title>
<path class="st0" d="M0,202.9c0.5-4.5,0.9-9.1,1.4-13.6c5-44.8,21.2-84.8,51.1-118.8C70.7,49.8,93,34.7,117.8,23.3
	c25.8-11.8,53.3-19.6,81.5-23c3-0.4,6-0.3,9,0.1c4.3,0.7,7,3.6,7.9,7.8s-0.4,7.8-4.3,10.1c-4.4,2.6-8.7,5.3-13.2,7.7
	c-22.3,11.9-42.9,26.1-61.2,43.6c-9.5,9.1-18.3,18.9-24.1,31c-0.5,1.1-1.1,2.2-1.5,3.4c-1,2.8-0.4,3.5,2.6,3.8
	c5,0.5,10.1,0.8,14.9,1.9c40.4,9.2,67.9,33.5,81.2,72.4c12.4,36.5,5.6,70.8-18,101.2c-15.8,20.4-37,33.3-62.2,38.5
	c-36.5,7.4-68.7-2.1-96.1-27.1c-21.2-19.4-32-43.9-33.9-72.5c-0.1-0.8-0.3-1.7-0.4-2.5L0,202.9z"/>
<path class="st0" d="M245,202.9c0.5-4.5,0.9-9.1,1.4-13.6c5-44.8,21.2-84.8,51.1-118.8c18.1-20.7,40.5-35.8,65.3-47.2
	c25.8-11.8,53.3-19.6,81.5-23c3-0.4,6-0.3,9,0.1c4.3,0.7,7,3.6,7.9,7.8s-0.4,7.8-4.3,10.1c-4.4,2.6-8.7,5.3-13.2,7.7
	c-22.3,11.9-42.9,26.1-61.2,43.6c-9.5,9.1-18.3,18.9-24.1,31c-0.5,1.1-1.1,2.2-1.5,3.4c-1,2.8-0.4,3.5,2.5,3.8
	c5,0.5,10.1,0.8,14.9,1.9c40.4,9.2,67.9,33.5,81.2,72.4c12.4,36.5,5.5,70.8-18,101.2c-15.8,20.4-37,33.3-62.2,38.5
	c-36.5,7.4-68.7-2.1-96.1-27.1c-21.2-19.4-32-43.9-33.9-72.5c-0.1-0.8-0.3-1.7-0.4-2.5L245,202.9z"/>
</svg>
