<?xml version="1.0" encoding="utf-8"?>
<!-- Generator: Adobe Illustrator 23.0.3, SVG Export Plug-In . SVG Version: 6.00 Build 0)  -->
<svg version="1.1" id="Capa_1" xmlns="http://www.w3.org/2000/svg" xmlns:xlink="http://www.w3.org/1999/xlink" x="0px" y="0px"
	 viewBox="0 0 40 40" style="enable-background:new 0 0 40 40;" xml:space="preserve">
<style type="text/css">
	.st0{opacity:0.05;}
</style>
<g class="st0">
	<path d="M8.7,9.1c3.8-3.8,9.3-5.8,13.6-1.6c3.9,3.9,0.9,9.8,1.3,12.2c0.4,1.8,2.1,3,0.1,5c-1.3,1.3-3,0.8-3.9-0.1
		c-3.5-3.5,0.8-9.6-2.1-12.5c-1.6-1.6-3.6-1.5-5.4,0.4c-3.8,3.8,1.6,6.3-1.3,9.2c-1.1,1.1-2.6,1.3-3.8,0.1C4.3,18.8,5,12.8,8.7,9.1z
		 M25.7,26.6c1.3-1.3,3.6-1.3,4.9,0c1.3,1.3,1.4,3.5,0,4.9c-1.4,1.4-3.6,1.3-4.9,0C24.5,30.1,24.4,27.9,25.7,26.6z"/>
</g>
</svg>
